<svg xmlns="http://www.w3.org/2000/svg" aria-hidden="true" style="position:absolute;width:0;height:0;overflow:hidden"><defs>
<symbol id="map-pin" viewBox="0 0 24 24"><path d="M22 10c0-2.761-1.12-5.263-2.929-7.071S14.761 0 12 0 6.737 1.12 4.929 2.929 2 7.239 2 10c0 .569.053 1.128.15 1.676.274 1.548.899 3.004 1.682 4.32 2.732 4.591 7.613 7.836 7.613 7.836.331.217.765.229 1.109 0 0 0 4.882-3.245 7.613-7.836.783-1.316 1.408-2.772 1.682-4.32A9.506 9.506 0 0 0 22 10zm-2 0c0 .444-.041.887-.119 1.328-.221 1.25-.737 2.478-1.432 3.646-1.912 3.214-5.036 5.747-6.369 6.74-1.398-.916-4.588-3.477-6.53-6.74-.695-1.168-1.211-2.396-1.432-3.646A7.713 7.713 0 0 1 4 10c0-2.209.894-4.208 2.343-5.657S9.791 2 12 2s4.208.894 5.657 2.343S20 7.791 20 10zm-4 0c0-1.104-.449-2.106-1.172-2.828a3.994 3.994 0 0 0-5.656 0 3.994 3.994 0 0 0 0 5.656 3.994 3.994 0 0 0 5.656 0A3.994 3.994 0 0 0 16 10zm-2 0c0 .553-.223 1.051-.586 1.414S12.553 12 12 12s-1.051-.223-1.414-.586S10 10.553 10 10s.223-1.051.586-1.414S11.447 8 12 8s1.051.223 1.414.586S14 9.447 14 10z"/></symbol>
<symbol id="mail" viewBox="0 0 24 24"><path d="m3 7.921 8.427 5.899c.34.235.795.246 1.147 0L21 7.921V18c0 .272-.11.521-.295.705S20.272 19 20 19H4c-.272 0-.521-.11-.705-.295S3 18.272 3 18zM1 5.983V18c0 .828.34 1.579.88 2.12S3.172 21 4 21h16c.828 0 1.579-.34 2.12-.88S23 18.828 23 18V5.982a2.995 2.995 0 0 0-.88-2.102A2.998 2.998 0 0 0 20 3H4c-.828 0-1.579.34-2.12.88A2.995 2.995 0 0 0 1 5.983zm19.894-.429L12 11.779 3.106 5.554a.999.999 0 0 1 .188-.259A.994.994 0 0 1 4 5h16a1.016 1.016 0 0 1 .893.554z"/></symbol>
<symbol id="phone" viewBox="0 0 24 24"><path d="M23 16.92a3.006 3.006 0 0 0-2.598-3.023c-.8-.098-1.695-.314-2.586-.646a3.045 3.045 0 0 0-1.344-.174 2.987 2.987 0 0 0-1.819.855l-.72.72a14.84 14.84 0 0 1-4.583-4.589l.726-.726c.322-.33.563-.726.707-1.156a2.992 2.992 0 0 0-.039-2.011 11.591 11.591 0 0 1-.644-2.595 3.02 3.02 0 0 0-.963-1.804A2.982 2.982 0 0 0 7.11 1H4.114a2.998 2.998 0 0 0-2.989 3.277c.3 3.076 1.365 6.243 3.216 9.102 1.502 2.413 3.648 4.623 6.298 6.306 2.568 1.697 5.684 2.862 9.086 3.231a2.994 2.994 0 0 0 2.406-.874c.54-.544.873-1.297.87-2.121zm-2 0v3a.997.997 0 0 1-.996 1.008c-3.149-.336-5.961-1.391-8.263-2.912-2.428-1.543-4.359-3.537-5.702-5.694-1.697-2.62-2.655-5.481-2.924-8.238-.024-.268.064-.526.229-.724s.403-.33.678-.355L7.11 3a.995.995 0 0 1 .687.256c.17.154.288.366.323.608.142 1.072.408 2.117.757 3.025.081.216.08.447.01.658a1.049 1.049 0 0 1-.242.395L7.383 9.203a1.001 1.001 0 0 0-.162 1.201c1.584 2.785 3.839 4.957 6.381 6.378.397.222.882.144 1.195-.166l1.27-1.27a.984.984 0 0 1 .598-.279c.152-.015.31.005.459.06 1.022.381 2.07.636 3.034.754a.976.976 0 0 1 .615.355c.147.181.231.412.226.682z"/></symbol>
<symbol id="facebook" viewBox="0 0 32 32"><path d="M21.33 5.313h2.921V.225C23.747.156 22.014 0 19.995 0c-4.212 0-7.097 2.649-7.097 7.519V12H8.25v5.688h4.648V32h5.699V17.689h4.46l.708-5.688h-5.169V8.082c.001-1.644.444-2.769 2.735-2.769z"/></symbol>
<symbol id="footer-line" viewBox="0 0 1920 32"><path d="M1920 0v32H0V0h1920z"/></symbol>
<symbol id="linkedin" viewBox="0 0 32 32"><path d="M31.992 32v-.001H32V20.263c0-5.741-1.236-10.164-7.948-10.164-3.227 0-5.392 1.771-6.276 3.449h-.093v-2.913h-6.364v21.364h6.627V21.42c0-2.785.528-5.479 3.977-5.479 3.399 0 3.449 3.179 3.449 5.657v10.401h6.62zM.528 10.636h6.635V32H.528V10.636zM3.843 0C1.722 0 0 1.721 0 3.843s1.721 3.879 3.843 3.879c2.121 0 3.843-1.757 3.843-3.879A3.846 3.846 0 0 0 3.843 0z"/></symbol>
<symbol id="plus" viewBox="0 0 32 32"><path fill="#ff6c00" d="M18.417 13.028h11.111v4.944H18.417v11.222h-4.944V17.972H2.39v-4.944h11.083V1.695h4.944v11.333z" style="fill:var(--color1, #ff6c00)"/></symbol>
<symbol id="twitter" viewBox="0 0 32 32"><path d="M32 6.078c-1.19.522-2.458.868-3.78 1.036a6.523 6.523 0 0 0 2.886-3.626 13.11 13.11 0 0 1-4.16 1.588A6.574 6.574 0 0 0 22.154 3c-3.632 0-6.556 2.948-6.556 6.562 0 .52.044 1.02.152 1.496-5.454-.266-10.28-2.88-13.522-6.862a6.605 6.605 0 0 0-.898 3.316 6.57 6.57 0 0 0 2.914 5.452 6.479 6.479 0 0 1-2.964-.808v.072c0 3.188 2.274 5.836 5.256 6.446a6.548 6.548 0 0 1-1.72.216 5.8 5.8 0 0 1-1.242-.112c.85 2.598 3.262 4.508 6.13 4.57a13.182 13.182 0 0 1-8.134 2.798c-.538 0-1.054-.024-1.57-.09A18.469 18.469 0 0 0 10.064 29c12.072 0 18.672-10 18.672-18.668 0-.29-.01-.57-.024-.848A13.087 13.087 0 0 0 32 6.078z"/></symbol>
<symbol id="instagram" viewBox="0 0 32 32"><path d="M16 2.881c4.275 0 4.781.019 6.462.094 1.563.069 2.406.331 2.969.55a4.952 4.952 0 0 1 1.837 1.194 5.015 5.015 0 0 1 1.2 1.838c.219.563.481 1.412.55 2.969.075 1.688.094 2.194.094 6.463s-.019 4.781-.094 6.463c-.069 1.563-.331 2.406-.55 2.969a4.94 4.94 0 0 1-1.194 1.837 5.02 5.02 0 0 1-1.837 1.2c-.563.219-1.413.481-2.969.55-1.688.075-2.194.094-6.463.094s-4.781-.019-6.463-.094c-1.563-.069-2.406-.331-2.969-.55a4.952 4.952 0 0 1-1.838-1.194 5.02 5.02 0 0 1-1.2-1.837c-.219-.563-.481-1.413-.55-2.969-.075-1.688-.094-2.194-.094-6.463s.019-4.781.094-6.463c.069-1.563.331-2.406.55-2.969a4.964 4.964 0 0 1 1.194-1.838 5.015 5.015 0 0 1 1.838-1.2c.563-.219 1.412-.481 2.969-.55 1.681-.075 2.188-.094 6.463-.094zM16 0c-4.344 0-4.887.019-6.594.094-1.7.075-2.869.35-3.881.744-1.056.412-1.95.956-2.837 1.85a7.833 7.833 0 0 0-1.85 2.831C.444 6.538.169 7.7.094 9.4.019 11.113 0 11.656 0 16s.019 4.887.094 6.594c.075 1.7.35 2.869.744 3.881.413 1.056.956 1.95 1.85 2.837a7.82 7.82 0 0 0 2.831 1.844c1.019.394 2.181.669 3.881.744 1.706.075 2.25.094 6.594.094s4.888-.019 6.594-.094c1.7-.075 2.869-.35 3.881-.744 1.05-.406 1.944-.956 2.831-1.844s1.438-1.781 1.844-2.831c.394-1.019.669-2.181.744-3.881.075-1.706.094-2.25.094-6.594s-.019-4.887-.094-6.594c-.075-1.7-.35-2.869-.744-3.881a7.506 7.506 0 0 0-1.831-2.844A7.82 7.82 0 0 0 26.482.843C25.463.449 24.301.174 22.601.099c-1.712-.081-2.256-.1-6.6-.1z"/>
<symbol id="cancel-circle" viewBox="0 0 32 32">
<path d="M16 0c-8.837 0-16 7.163-16 16s7.163 16 16 16 16-7.163 16-16-7.163-16-16-16zM16 29c-7.18 0-13-5.82-13-13s5.82-13 13-13 13 5.82 13 13-5.82 13-13 13z"></path>
<path d="M21 8l-5 5-5-5-3 3 5 5-5 5 3 3 5-5 5 5 3-3-5-5 5-5z"></path>
</symbol>


<symbol id="footer-send" viewBox="0 0 32 32"><path d="M32 0 0 18l10.227 3.788L26 7 14.002 23.186l.01.004-.012-.004V32l5.735-6.691L27 28l5-28z"/></symbol>
<symbol id="checkbox" viewBox="0 0 34 32"><path d="M30.341 3.556v24.889H3.793V3.556h26.548zm0-3.556H3.793C1.707 0 0 1.6 0 3.556v24.889c0 1.956 1.707 3.556 3.793 3.556h26.548c2.086 0 3.793-1.6 3.793-3.556V3.556C34.134 1.6 32.427 0 30.341 0z"/></symbol>
<symbol id="check" viewBox="0 0 42 32"><path fill="#fff" style="fill:var(--color1, #fff);stroke:var(--color1, #fff)" stroke="#fff" stroke-width=".64" d="m6.263 15.205-.22-.21-3.307 3.132 11.651 11.114L38.864 5.89l-3.285-3.134-21.192 20.197-8.124-7.75z"/></symbol>
<symbol id="icon-person" viewBox="0 0 32 32"><path d="M16 16c4.42 0 8-3.58 8-8s-3.58-8-8-8-8 3.58-8 8 3.58 8 8 8zm0 4c-5.34 0-16 2.68-16 8v2c0 1.1.9 2 2 2h28c1.1 0 2-.9 2-2v-2c0-5.32-10.66-8-16-8z"/></symbol>

<symbol id="email-form" viewBox="0 0 43 32"><path d="M37.333 0h-32c-2.2 0-3.98 1.8-3.98 4l-.02 24c0 2.2 1.8 4 4 4h32c2.2 0 4-1.8 4-4V4c0-2.2-1.8-4-4-4zm-.8 8.5-14.14 8.84c-.64.4-1.48.4-2.12 0L6.133 8.5c-.5-.32-.8-.86-.8-1.44 0-1.34 1.46-2.14 2.6-1.44l13.4 8.38 13.4-8.38c1.14-.7 2.6.1 2.6 1.44 0 .58-.3 1.12-.8 1.44z"/></symbol>
<symbol id="email" viewBox="0 0 43 32"><path d="M37.333 0h-32c-2.2 0-3.98 1.8-3.98 4l-.02 24c0 2.2 1.8 4 4 4h32c2.2 0 4-1.8 4-4V4c0-2.2-1.8-4-4-4zm-.8 8.5-14.14 8.84c-.64.4-1.48.4-2.12 0L6.133 8.5c-.5-.32-.8-.86-.8-1.44 0-1.34 1.46-2.14 2.6-1.44l13.4 8.38 13.4-8.38c1.14-.7 2.6.1 2.6 1.44 0 .58-.3 1.12-.8 1.44z"/></symbol>
<symbol id="phone" viewBox="0 0 32 32"><path d="m27.419 20.852-4.201-.48a3.293 3.293 0 0 0-2.713.943l-3.044 3.044A24.888 24.888 0 0 1 6.56 13.458l3.06-3.06a3.293 3.293 0 0 0 .943-2.713l-.48-4.168A3.31 3.31 0 0 0 6.791.589H3.929C2.06.589.505 2.144.621 4.013c.877 14.126 12.174 25.407 26.284 26.284 1.869.116 3.424-1.439 3.424-3.308v-2.861c.016-1.671-1.241-3.077-2.911-3.275z"/></symbol>

<path d="M16 7.781c-4.537 0-8.219 3.681-8.219 8.219s3.681 8.219 8.219 8.219 8.219-3.681 8.219-8.219A8.221 8.221 0 0 0 16 7.781zm0 13.55a5.331 5.331 0 1 1 0-10.663 5.331 5.331 0 0 1 0 10.663zM26.462 7.456a1.919 1.919 0 1 1-3.838 0 1.919 1.919 0 0 1 3.838 0z"/></symbol></defs></svg>